<?xml version="1.0" encoding="UTF-8"?>
<svg width="66px" height="41px" viewBox="0 0 66 41" version="1.1" xmlns="http://www.w3.org/2000/svg" xmlns:xlink="http://www.w3.org/1999/xlink">
    <title>􀋭</title>
    <g id="Landing" stroke="none" stroke-width="1" fill="none" fill-rule="evenodd">
        <g id="Landing_new" transform="translate(-1226.000000, -1947.000000)" fill="#34C759" fill-rule="nonzero">
            <g id="Group" transform="translate(1095.166375, 1947.259406)">
                <g id="􀋭" transform="translate(131.796875, 0.000000)">
                    <path d="M32.0390625,40.171875 C35.1953125,40.171875 38.1757812,39.7929688 40.9804688,39.0351562 C43.7851562,38.2773438 46.375,37.2773438 48.75,36.0351562 C51.125,34.7929688 53.2539062,33.421875 55.1367188,31.921875 C57.0195312,30.421875 58.625,28.9179688 59.953125,27.4101562 C61.28125,25.9023438 62.296875,24.5039062 63,23.2148438 C63.703125,21.9257812 64.0546875,20.8828125 64.0546875,20.0859375 C64.0546875,19.2890625 63.703125,18.2460938 63,16.9570312 C62.296875,15.6679688 61.28125,14.2695312 59.953125,12.7617188 C58.625,11.2539062 57.0195312,9.75 55.1367188,8.25 C53.2539062,6.75 51.1210938,5.37890625 48.7382812,4.13671875 C46.3554688,2.89453125 43.7617188,1.89453125 40.9570312,1.13671875 C38.1523438,0.37890625 35.1796875,0 32.0390625,0 C28.9296875,0 25.9804688,0.37890625 23.1914062,1.13671875 C20.4023438,1.89453125 17.8164062,2.89453125 15.4335938,4.13671875 C13.0507812,5.37890625 10.9101562,6.75 9.01171875,8.25 C7.11328125,9.75 5.4921875,11.2539062 4.1484375,12.7617188 C2.8046875,14.2695312 1.77734375,15.6679688 1.06640625,16.9570312 C0.35546875,18.2460938 0,19.2890625 0,20.0859375 C0,20.8828125 0.35546875,21.9257812 1.06640625,23.2148438 C1.77734375,24.5039062 2.8046875,25.9023438 4.1484375,27.4101562 C5.4921875,28.9179688 7.109375,30.421875 9,31.921875 C10.890625,33.421875 13.0273438,34.7929688 15.4101562,36.0351562 C17.7929688,37.2773438 20.3789062,38.2773438 23.1679688,39.0351562 C25.9570312,39.7929688 28.9140625,40.171875 32.0390625,40.171875 Z M32.0390625,36.46875 C29.4609375,36.46875 26.984375,36.1484375 24.609375,35.5078125 C22.234375,34.8671875 20.0078125,34.0195312 17.9296875,32.9648438 C15.8515625,31.9101562 13.96875,30.7578125 12.28125,29.5078125 C10.59375,28.2578125 9.13671875,27.0195312 7.91015625,25.7929688 C6.68359375,24.5664062 5.7421875,23.4453125 5.0859375,22.4296875 C4.4296875,21.4140625 4.1015625,20.6328125 4.1015625,20.0859375 C4.1015625,19.6171875 4.4296875,18.8984375 5.0859375,17.9296875 C5.7421875,16.9609375 6.68359375,15.8554688 7.91015625,14.6132812 C9.13671875,13.3710938 10.59375,12.1171875 12.28125,10.8515625 C13.96875,9.5859375 15.8515625,8.41015625 17.9296875,7.32421875 C20.0078125,6.23828125 22.234375,5.36328125 24.609375,4.69921875 C26.984375,4.03515625 29.4609375,3.703125 32.0390625,3.703125 C34.6015625,3.703125 37.0664062,4.03515625 39.4335938,4.69921875 C41.8007812,5.36328125 44.0234375,6.23828125 46.1015625,7.32421875 C48.1796875,8.41015625 50.0664062,9.5859375 51.7617188,10.8515625 C53.4570312,12.1171875 54.9140625,13.3710938 56.1328125,14.6132812 C57.3515625,15.8554688 58.2929688,16.9609375 58.9570312,17.9296875 C59.6210938,18.8984375 59.953125,19.6171875 59.953125,20.0859375 C59.953125,20.6328125 59.6210938,21.4140625 58.9570312,22.4296875 C58.2929688,23.4453125 57.3515625,24.5664062 56.1328125,25.7929688 C54.9140625,27.0195312 53.4570312,28.2578125 51.7617188,29.5078125 C50.0664062,30.7578125 48.1796875,31.9101562 46.1015625,32.9648438 C44.0234375,34.0195312 41.8007812,34.8671875 39.4335938,35.5078125 C37.0664062,36.1484375 34.6015625,36.46875 32.0390625,36.46875 Z M32.0390625,33.2109375 C33.8515625,33.2109375 35.5546875,32.8671875 37.1484375,32.1796875 C38.7421875,31.4921875 40.140625,30.5429688 41.34375,29.3320312 C42.546875,28.1210938 43.4882812,26.7226562 44.1679688,25.1367188 C44.8476562,23.5507812 45.1875,21.8671875 45.1875,20.0859375 C45.1875,18.2578125 44.8476562,16.546875 44.1679688,14.953125 C43.4882812,13.359375 42.546875,11.9648438 41.34375,10.7695312 C40.140625,9.57421875 38.7421875,8.640625 37.1484375,7.96875 C35.5546875,7.296875 33.8515625,6.9609375 32.0390625,6.9609375 C30.1953125,6.9609375 28.4765625,7.296875 26.8828125,7.96875 C25.2890625,8.640625 23.890625,9.57421875 22.6875,10.7695312 C21.484375,11.9648438 20.5429688,13.359375 19.8632812,14.953125 C19.1835938,16.546875 18.84375,18.2578125 18.84375,20.0859375 C18.859375,21.8671875 19.2070312,23.5507812 19.8867188,25.1367188 C20.5664062,26.7226562 21.5078125,28.1210938 22.7109375,29.3320312 C23.9140625,30.5429688 25.3085938,31.4921875 26.8945312,32.1796875 C28.4804688,32.8671875 30.1953125,33.2109375 32.0390625,33.2109375 Z M32.0390625,24.4453125 C30.8203125,24.4453125 29.78125,24.015625 28.921875,23.15625 C28.0625,22.296875 27.6328125,21.2734375 27.6328125,20.0859375 C27.6328125,18.8828125 28.0625,17.8554688 28.921875,17.0039062 C29.78125,16.1523438 30.8203125,15.7265625 32.0390625,15.7265625 C33.2421875,15.7265625 34.2734375,16.1523438 35.1328125,17.0039062 C35.9921875,17.8554688 36.421875,18.8828125 36.421875,20.0859375 C36.421875,21.2734375 35.9921875,22.296875 35.1328125,23.15625 C34.2734375,24.015625 33.2421875,24.4453125 32.0390625,24.4453125 Z" id="Shape"></path>
                </g>
            </g>
        </g>
    </g>
</svg>