<?xml version="1.0" encoding="UTF-8"?>
<svg width="40px" height="48px" viewBox="0 0 40 48" version="1.1" xmlns="http://www.w3.org/2000/svg" xmlns:xlink="http://www.w3.org/1999/xlink">
    <title>􀿮</title>
    <g id="Landing" stroke="none" stroke-width="1" fill="none" fill-rule="evenodd">
        <g id="Landing_new" transform="translate(-315.000000, -1944.000000)" fill="#AF52DE" fill-rule="nonzero">
            <g id="Group" transform="translate(171.166375, 1944.282844)">
                <g id="􀿮" transform="translate(144.347656, 0.000000)">
                    <path d="M38.953125,27.6796875 L38.953125,9.75 C38.953125,8.515625 38.6953125,7.62890625 38.1796875,7.08984375 C37.6640625,6.55078125 36.90625,6.078125 35.90625,5.671875 C35.359375,5.4375 34.6015625,5.1328125 33.6328125,4.7578125 C32.6640625,4.3828125 31.5976562,3.9765625 30.4335938,3.5390625 C29.2695312,3.1015625 28.1015625,2.66796875 26.9296875,2.23828125 C25.7578125,1.80859375 24.6875,1.42578125 23.71875,1.08984375 C22.75,0.75390625 21.9921875,0.5078125 21.4453125,0.3515625 C21.1328125,0.2734375 20.8085938,0.1953125 20.4726562,0.1171875 C20.1367188,0.0390625 19.8046875,0 19.4765625,0 C19.1484375,0 18.8203125,0.03515625 18.4921875,0.10546875 C18.1640625,0.17578125 17.84375,0.2578125 17.53125,0.3515625 C16.96875,0.5390625 16.203125,0.8046875 15.234375,1.1484375 C14.265625,1.4921875 13.1992187,1.875 12.0351563,2.296875 C10.8710938,2.71875 9.703125,3.14453125 8.53125,3.57421875 C7.359375,4.00390625 6.2890625,4.40234375 5.3203125,4.76953125 C4.3515625,5.13671875 3.59375,5.4375 3.046875,5.671875 C2.0625,6.09375 1.30859375,6.5703125 0.78515625,7.1015625 C0.26171875,7.6328125 0,8.515625 0,9.75 L0,27.6796875 C0,29.8203125 0.3125,31.6835938 0.9375,33.2695312 C1.5625,34.8554688 2.5703125,36.328125 3.9609375,37.6875 C5.3515625,39.046875 7.19140625,40.4492188 9.48046875,41.8945312 C11.7695313,43.3398438 14.578125,45 17.90625,46.875 C18.203125,47.03125 18.4921875,47.1484375 18.7734375,47.2265625 C19.0546875,47.3046875 19.2890625,47.34375 19.4765625,47.34375 C19.6640625,47.34375 19.8984375,47.3046875 20.1796875,47.2265625 C20.4609375,47.1484375 20.75,47.03125 21.046875,46.875 C24.375,45 27.1835938,43.3359375 29.4726562,41.8828125 C31.7617188,40.4296875 33.6015625,39.0234375 34.9921875,37.6640625 C36.3828125,36.3046875 37.390625,34.8359375 38.015625,33.2578125 C38.640625,31.6796875 38.953125,29.8203125 38.953125,27.6796875 Z M18.984375,43.0078125 C18.84375,42.9609375 18.6953125,42.8984375 18.5390625,42.8203125 C18.3828125,42.7421875 18.2109375,42.6484375 18.0234375,42.5390625 C15.3203125,40.8984375 13.0507812,39.484375 11.2148438,38.296875 C9.37890625,37.109375 7.9140625,35.984375 6.8203125,34.921875 C5.7265625,33.859375 4.9375,32.6953125 4.453125,31.4296875 C3.96875,30.1640625 3.7265625,28.625 3.7265625,26.8125 L3.7265625,10.4765625 C3.7265625,10.0859375 3.77734375,9.7890625 3.87890625,9.5859375 C3.98046875,9.3828125 4.1953125,9.2265625 4.5234375,9.1171875 C5.2421875,8.8671875 6.07421875,8.57421875 7.01953125,8.23828125 C7.96484375,7.90234375 8.9609375,7.546875 10.0078125,7.171875 C11.0546875,6.796875 12.0976562,6.41796875 13.1367188,6.03515625 C14.1757812,5.65234375 15.1601562,5.28515625 16.0898438,4.93359375 C17.0195312,4.58203125 17.8359375,4.265625 18.5390625,3.984375 C18.6328125,3.9375 18.7148438,3.90625 18.7851562,3.890625 C18.8554688,3.875 18.921875,3.859375 18.984375,3.84375 L18.984375,43.0078125 Z" id="Shape"></path>
                </g>
            </g>
        </g>
    </g>
</svg>