<?xml version="1.0" encoding="UTF-8"?>
<svg width="121px" height="25px" viewBox="0 0 121 25" version="1.1" xmlns="http://www.w3.org/2000/svg" xmlns:xlink="http://www.w3.org/1999/xlink">
    <title>PAPER</title>
    <g id="Landing" stroke="none" stroke-width="1" fill="none" fill-rule="evenodd">
        <g id="Landing_02" transform="translate(-1327.000000, -8403.000000)" fill="#FFFFFF" fill-rule="nonzero">
            <g id="Group-2" transform="translate(1199.166375, 8403.138916)">
                <g id="PAPER" transform="translate(128.646273, 0.000000)">
                    <path d="M3.54261954,17.4469854 L10.7276507,17.4469854 C12.6015246,17.4469854 14.2231462,17.0949411 15.5925156,16.3908524 C16.961885,15.6867637 18.02079,14.6860707 18.7692308,13.3887734 C19.5176715,12.0914761 19.8918919,10.5557866 19.8918919,8.78170478 L19.8918919,8.74844075 C19.8918919,6.97435897 19.5176715,5.43312543 18.7692308,4.12474012 C18.02079,2.81635482 16.961885,1.8018018 15.5925156,1.08108108 C14.2231462,0.36036036 12.6015246,0 10.7276507,0 L3.54261954,0 L3.54261954,5.30561331 L9.04781705,5.30561331 C10.2120582,5.30561331 11.1240471,5.59112959 11.7837838,6.16216216 C12.4435204,6.73319473 12.7733888,7.5952876 12.7733888,8.74844075 L12.7733888,8.78170478 C12.7733888,9.92376992 12.4435204,10.7858628 11.7837838,11.3679834 C11.1240471,11.950104 10.2120582,12.2411642 9.04781705,12.2411642 L3.54261954,12.2411642 L3.54261954,17.4469854 Z M0,24 L7.05197505,24 L7.05197505,0 L0,0 L0,24 Z" id="Shape"></path>
                    <path d="M21.1773092,24 L28.5951886,24 L33.3685774,5.72141372 L35.6637957,5.72141372 L35.6637957,0 L29.010989,0 L21.1773092,24 Z M26.1003861,19.2266112 L40.7698248,19.2266112 L39.3062073,14.2536383 L27.5640036,14.2536383 L26.1003861,19.2266112 Z M38.2750223,24 L45.6929017,24 L37.8592219,0 L33.5016335,0 L33.5016335,5.72141372 L38.2750223,24 Z" id="Shape"></path>
                    <path d="M54.013662,17.4469854 L61.1986932,17.4469854 C63.0725671,17.4469854 64.6941887,17.0949411 66.0635581,16.3908524 C67.4329274,15.6867637 68.4918325,14.6860707 69.2402732,13.3887734 C69.988714,12.0914761 70.3629344,10.5557866 70.3629344,8.78170478 L70.3629344,8.74844075 C70.3629344,6.97435897 69.988714,5.43312543 69.2402732,4.12474012 C68.4918325,2.81635482 67.4329274,1.8018018 66.0635581,1.08108108 C64.6941887,0.36036036 63.0725671,0 61.1986932,0 L54.013662,0 L54.013662,5.30561331 L59.5188595,5.30561331 C60.6831007,5.30561331 61.5950896,5.59112959 62.2548263,6.16216216 C62.9145629,6.73319473 63.2444312,7.5952876 63.2444312,8.74844075 L63.2444312,8.78170478 C63.2444312,9.92376992 62.9145629,10.7858628 62.2548263,11.3679834 C61.5950896,11.950104 60.6831007,12.2411642 59.5188595,12.2411642 L54.013662,12.2411642 L54.013662,17.4469854 Z M50.4710425,24 L57.5230175,24 L57.5230175,0 L50.4710425,0 L50.4710425,24 Z" id="Shape"></path>
                    <polygon id="Path" points="75.4737155 24 92.4051084 24 92.4051084 18.4116424 82.5256905 18.4116424 82.5256905 14.6029106 91.7897238 14.6029106 91.7897238 9.41372141 82.5256905 9.41372141 82.5256905 5.58835759 92.4051084 5.58835759 92.4051084 0 75.4737155 0"></polygon>
                    <path d="M98.3142263,24 L105.366201,24 L105.366201,16.1164241 L107.362043,16.1164241 C107.417483,16.1164241 107.472923,16.1164241 107.528364,16.1164241 C107.583804,16.1164241 107.6337,16.1164241 107.678052,16.1164241 L111.470151,24 L119.353727,24 L114.796555,15.0686071 C115.960796,14.5031185 116.894961,13.5994456 117.59905,12.3575884 C118.303138,11.1157311 118.655183,9.74636175 118.655183,8.24948025 L118.655183,8.21621622 C118.655183,6.44213444 118.289278,4.94525295 117.55747,3.72557173 C116.825661,2.50589051 115.752896,1.58004158 114.339174,0.948024948 C112.925453,0.316008316 111.187407,0 109.125037,0 L98.3142263,0 L98.3142263,24 Z M105.366201,11.1434511 L105.366201,5.20582121 L108.310068,5.20582121 C109.241461,5.20582121 110.00099,5.48024948 110.588655,6.02910603 C111.176319,6.57796258 111.470151,7.29036729 111.470151,8.16632017 L111.470151,8.1995842 C111.470151,9.07553708 111.181863,9.78516979 110.605287,10.3284823 C110.02871,10.8717949 109.263637,11.1434511 108.310068,11.1434511 L105.366201,11.1434511 Z" id="Shape"></path>
                </g>
            </g>
        </g>
    </g>
</svg>