<?xml version="1.0" encoding="UTF-8"?>
<svg width="37px" height="41px" viewBox="0 0 37 41" version="1.1" xmlns="http://www.w3.org/2000/svg" xmlns:xlink="http://www.w3.org/1999/xlink">
    <title>􀊃</title>
    <g id="Landing" stroke="none" stroke-width="1" fill="none" fill-rule="evenodd">
        <g id="Landing_new" transform="translate(-781.000000, -1947.000000)" fill="#FF9500" fill-rule="nonzero">
            <g id="Group-19" transform="translate(597.166375, 1874.243781)">
                <g id="Group" transform="translate(32.000000, 73.273437)">
                    <g id="􀊃" transform="translate(152.730469, 0.000000)">
                        <path d="M2.8125,39.6796875 C3.28125,39.6796875 3.7265625,39.5976562 4.1484375,39.4335938 C4.5703125,39.2695312 5.015625,39.046875 5.484375,38.765625 L32.8125,22.96875 C33.796875,22.390625 34.4804688,21.8789062 34.8632812,21.4335938 C35.2460938,20.9882812 35.4375,20.453125 35.4375,19.828125 C35.4375,19.203125 35.2460938,18.6679688 34.8632812,18.2226562 C34.4804688,17.7773438 33.796875,17.2734375 32.8125,16.7109375 L5.484375,0.890625 C5.015625,0.625 4.5703125,0.41015625 4.1484375,0.24609375 C3.7265625,0.08203125 3.28125,0 2.8125,0 C1.953125,0 1.26953125,0.3046875 0.76171875,0.9140625 C0.25390625,1.5234375 0,2.3359375 0,3.3515625 L0,36.3046875 C0,37.3203125 0.25390625,38.1367188 0.76171875,38.7539062 C1.26953125,39.3710938 1.953125,39.6796875 2.8125,39.6796875 Z M4.0078125,35.203125 C3.8515625,35.203125 3.7734375,35.109375 3.7734375,34.921875 L3.7734375,4.734375 C3.7734375,4.546875 3.8515625,4.453125 4.0078125,4.453125 C4.0859375,4.453125 4.1796875,4.4921875 4.2890625,4.5703125 L30.234375,19.5703125 C30.28125,19.6015625 30.328125,19.6367188 30.375,19.6757812 C30.421875,19.7148438 30.4453125,19.765625 30.4453125,19.828125 C30.4453125,19.890625 30.421875,19.9414062 30.375,19.9804688 C30.328125,20.0195312 30.28125,20.0546875 30.234375,20.0859375 L4.2890625,35.109375 C4.1796875,35.171875 4.0859375,35.203125 4.0078125,35.203125 Z" id="Shape"></path>
                    </g>
                </g>
            </g>
        </g>
    </g>
</svg>