<?xml version="1.0" encoding="UTF-8"?>
<svg width="19px" height="16px" viewBox="0 0 19 16" version="1.1" xmlns="http://www.w3.org/2000/svg" xmlns:xlink="http://www.w3.org/1999/xlink">
    <title>􀄫</title>
    <g id="Landing" stroke="none" stroke-width="1" fill="none" fill-rule="evenodd">
        <g id="Landing_new" transform="translate(-890.000000, -7000.000000)" fill="#FF617B" fill-rule="nonzero">
            <g id="Group-7" transform="translate(683.166375, 6991.750086)">
                <g id="􀄫" transform="translate(207.490234, 8.546875)">
                    <path d="M18.1347656,7.40234375 C18.1347656,7.15494792 18.0371094,6.93684896 17.8417969,6.74804688 L11.3671875,0.29296875 C11.2630208,0.188802083 11.1572266,0.113932292 11.0498047,0.068359375 C10.9423828,0.0227864583 10.8300781,0 10.7128906,0 C10.4720052,0 10.2701823,0.0797526042 10.1074219,0.239257812 C9.94466146,0.398763021 9.86328125,0.598958333 9.86328125,0.83984375 C9.86328125,0.95703125 9.8828125,1.06933594 9.921875,1.17675781 C9.9609375,1.28417969 10.0195312,1.37695312 10.0976562,1.45507812 L12.2851562,3.68164062 L16.1621094,7.21679688 L16.3574219,6.72851562 L13.2128906,6.53320312 L0.859375,6.53320312 C0.60546875,6.53320312 0.398763021,6.61458333 0.239257812,6.77734375 C0.0797526042,6.94010417 0,7.1484375 0,7.40234375 C0,7.65625 0.0797526042,7.86458333 0.239257812,8.02734375 C0.398763021,8.19010417 0.60546875,8.27148438 0.859375,8.27148438 L13.2128906,8.27148438 L16.3574219,8.07617188 L16.1621094,7.59765625 L12.2851562,11.1230469 L10.0976562,13.3496094 C10.0195312,13.4277344 9.9609375,13.5205078 9.921875,13.6279297 C9.8828125,13.7353516 9.86328125,13.8476562 9.86328125,13.9648438 C9.86328125,14.2057292 9.94466146,14.4059245 10.1074219,14.5654297 C10.2701823,14.7249349 10.4720052,14.8046875 10.7128906,14.8046875 C10.9472656,14.8046875 11.1588542,14.7135417 11.3476562,14.53125 L17.8417969,8.05664062 C18.0371094,7.86783854 18.1347656,7.64973958 18.1347656,7.40234375 Z" id="Path"></path>
                </g>
            </g>
        </g>
    </g>
</svg>