<?xml version="1.0" encoding="UTF-8"?>
<svg width="24px" height="27px" viewBox="0 0 24 27" version="1.1" xmlns="http://www.w3.org/2000/svg" xmlns:xlink="http://www.w3.org/1999/xlink">
    <title>apple</title>
    <g id="Landing" stroke="none" stroke-width="1" fill="none" fill-rule="evenodd">
        <g id="Landing_new" transform="translate(-687.000000, -6995.000000)" fill="#FF617B">
            <g id="apple" transform="translate(683.166375, 6991.750086)">
                <path d="M13.647,14.907 C13.0522317,14.8566335 12.4874884,15.1763427 12.2246098,15.7122353 C11.9617312,16.2481279 12.0545749,16.8904122 12.4584505,17.3299239 C12.8623261,17.7694356 13.4944891,17.9161292 14.0506471,17.6993935 C14.6068051,17.4826579 14.9730145,16.946897 14.973,16.35 C14.9887127,15.9827563 14.8577933,15.6243292 14.6090796,15.3536701 C14.3603658,15.083011 14.0142602,14.9223226 13.647,14.907 L13.647,14.907 Z M18.392,14.907 C17.7972317,14.8566335 17.2324884,15.1763427 16.9696098,15.7122353 C16.7067312,16.2481279 16.7995749,16.8904122 17.2034505,17.3299239 C17.6073261,17.7694356 18.2394891,17.9161292 18.7956471,17.6993935 C19.3518051,17.4826579 19.7180145,16.946897 19.718,16.35 C19.7337127,15.9827563 19.6027933,15.6243292 19.3540796,15.3536701 C19.1053658,15.083011 18.7592602,14.9223226 18.392,14.907 Z M24.71,4 L7.29,4 C6.5814653,4.00169531 5.90262699,4.28480026 5.40283636,4.7870289 C4.90304572,5.28925754 4.62324745,5.96946544 4.62499182,6.678 L4.62499182,24.254 C4.62324745,24.9625346 4.90304572,25.6427425 5.40283636,26.1449711 C5.90262699,26.6471997 6.5814653,26.9303047 7.29,26.932 L22.032,26.932 L21.343,24.527 L23.007,26.074 L24.58,27.53 L27.3750082,30 L27.3750082,6.678 C27.3767525,5.96946544 27.0969543,5.28925754 26.5971636,4.7870289 C26.097373,4.28480026 25.4185347,4.00169531 24.71,4 Z M19.692,20.978 C19.692,20.978 19.224,20.419 18.834,19.925 C19.7763035,19.7031346 20.609779,19.1551589 21.187,18.378 C20.7192323,18.6893062 20.2177006,18.9466138 19.692,19.145 C19.0872335,19.4031452 18.4547255,19.5907166 17.807,19.704 C16.6936148,19.9089861 15.5517691,19.9045774 14.44,19.691 C13.7872966,19.5632894 13.1476348,19.3761775 12.529,19.132 C12.202906,19.0066012 11.8858242,18.8589192 11.58,18.69 C11.541,18.664 11.502,18.651 11.463,18.625 C11.4434436,18.6152633 11.425823,18.6020478 11.411,18.586 C11.177,18.456 11.047,18.365 11.047,18.365 C11.6033414,19.125884 12.4080408,19.6684814 13.322,19.899 C12.932,20.393 12.451,20.978 12.451,20.978 C10.8828575,21.0201871 9.39649181,20.2794409 8.486,19.002 C8.52820439,16.3665272 9.16829668,13.7750425 10.358,11.423 C11.4049566,10.6007322 12.6813702,10.1237805 14.011,10.058 L14.141,10.214 C12.8900539,10.5235745 11.7227036,11.1050304 10.722,11.917 C10.722,11.917 11.008,11.761 11.489,11.54 C12.4234535,11.1134489 13.4193718,10.8370486 14.44,10.721 C14.5127729,10.7059383 14.5867185,10.6972388 14.661,10.695 C15.5321545,10.5815014 16.413769,10.5727726 17.287,10.669 C18.6602396,10.8258354 19.9895355,11.2497969 21.2,11.917 C20.2500376,11.1437287 19.1467065,10.5809855 17.963,10.266 L18.145,10.058 C19.4746298,10.1237805 20.7510434,10.6007322 21.798,11.423 C22.9877033,13.7750425 23.6277956,16.3665272 23.67,19.002 C22.7523636,20.2779823 21.2631813,21.0177068 19.692,20.978 L19.692,20.978 Z" id="Fill"></path>
            </g>
        </g>
    </g>
</svg>