<?xml version="1.0" encoding="UTF-8"?>
<svg width="154px" height="24px" viewBox="0 0 154 24" version="1.1" xmlns="http://www.w3.org/2000/svg" xmlns:xlink="http://www.w3.org/1999/xlink">
    <title>Group 18</title>
    <defs>
        <linearGradient x1="19.758548%" y1="19.758548%" x2="100%" y2="100%" id="linearGradient-1">
            <stop stop-color="#FFFFFF" stop-opacity="0.254200755" offset="0%"></stop>
            <stop stop-color="#FFFFFF" stop-opacity="0.896422524" offset="69.7580618%"></stop>
            <stop stop-color="#FFFFFF" offset="81.2361711%"></stop>
            <stop stop-color="#FFFFFF" offset="100%"></stop>
        </linearGradient>
    </defs>
    <g id="Landing" stroke="none" stroke-width="1" fill="none" fill-rule="evenodd">
        <g id="Landing-new-tablet" transform="translate(-307.000000, -142.000000)">
            <g id="Group-18" transform="translate(307.017917, 142.000000)">
                <g id="􀋃" transform="translate(0.000000, 0.000431)" fill="#FF3B30" fill-rule="nonzero">
                    <path d="M4.81501292,23.7923607 C5.04871482,23.9732912 5.3125718,24.0354861 5.60658386,23.9789453 C5.90059592,23.9224045 6.22099368,23.7697444 6.56777714,23.520965 L12.5497918,19.1220922 L18.5431146,23.520965 C18.889898,23.7697444 19.2102958,23.9224045 19.5043079,23.9789453 C19.7983199,24.0354861 20.0621769,23.9732912 20.2958788,23.7923607 C20.5295807,23.618969 20.6709327,23.3852671 20.7199347,23.091255 C20.7689367,22.797243 20.7218194,22.4466901 20.5785827,22.0395965 L18.2151781,15.0059233 L24.2537335,10.6635913 C24.6080557,10.4148119 24.8530658,10.1584937 24.9887636,9.8946367 C25.1244615,9.63077972 25.1470778,9.35938397 25.0566126,9.08044945 C24.9661473,8.8090537 24.7889862,8.60550689 24.5251292,8.46980902 C24.2612723,8.33411114 23.9107194,8.27003159 23.4734707,8.27757036 L16.0666284,8.32280299 L13.8163053,1.25520534 C13.6806074,0.840572947 13.5091004,0.527713957 13.3017842,0.316628374 C13.094468,0.105542791 12.8438038,0 12.5497918,0 C12.2633185,0 12.0164238,0.105542791 11.8091076,0.316628374 C11.6017914,0.527713957 11.4302843,0.840572947 11.2945864,1.25520534 L9.04426335,8.32280299 L1.63742102,8.27757036 C1.20017231,8.27003159 0.849619472,8.33411114 0.585762493,8.46980902 C0.321905514,8.60550689 0.1447444,8.8090537 0.0542791499,9.08044945 C-0.0361860999,9.35938397 -0.0135697875,9.63077972 0.122128087,9.8946367 C0.257825962,10.1584937 0.502836014,10.4148119 0.857158242,10.6635913 L6.89571367,15.0059233 L4.53230902,22.0395965 C4.38907237,22.4466901 4.34195505,22.797243 4.39095706,23.091255 C4.43995908,23.3852671 4.58131103,23.618969 4.81501292,23.7923607 Z" id="Path"></path>
                </g>
                <g id="􀙋" transform="translate(34.933154, 0.000000)" fill="#34C759" fill-rule="nonzero">
                    <path d="M0,22.221768 C0,22.6714359 0.122636689,23.0189065 0.367910066,23.2641799 C0.613183444,23.5094532 0.956566173,23.6320899 1.39805825,23.6320899 C1.70056208,23.6320899 2.04394481,23.5258048 2.42820644,23.3132345 L7.57894737,20.5293817 L7.57894737,0.208482371 C7.47266224,0.257537046 7.35820133,0.312723556 7.23556464,0.374041901 C7.11292795,0.435360245 6.99846704,0.498722534 6.89218191,0.564128769 L1.07920286,3.8998467 C0.711292795,4.10424119 0.439448135,4.3556464 0.263668881,4.65406234 C0.087889627,4.95247828 0,5.30608074 0,5.7148697 L0,22.221768 Z M9.25907001,20.296372 L15.4399591,23.7669903 C15.5380685,23.816045 15.6341339,23.8610118 15.7281553,23.9018906 C15.8221768,23.9427695 15.9141543,23.9754727 16.0040879,24 L16.0040879,3.98569239 L9.94583546,0.282064384 C9.83955033,0.21665815 9.72713337,0.159427695 9.60858457,0.11037302 C9.49003577,0.0613183444 9.37353091,0.0245273378 9.25907001,0 L9.25907001,20.296372 Z M17.6719469,23.963209 C17.7373531,23.9468574 17.8007154,23.924374 17.8620337,23.8957588 C17.9233521,23.8671436 17.9826265,23.8364844 18.0398569,23.8037813 L24.4292284,20.1737353 C24.7971385,19.9693408 25.0689831,19.7179356 25.2447624,19.4195197 C25.4205416,19.1211037 25.5084313,18.7675013 25.5084313,18.3587123 L25.5084313,1.83955033 C25.5084313,1.38988247 25.3857946,1.04241185 25.1405212,0.797138477 C24.8952478,0.5518651 24.5518651,0.429228411 24.110373,0.429228411 C23.8078692,0.429228411 23.4644865,0.535513541 23.0802248,0.748083802 L17.6719469,3.75268268 L17.6719469,23.963209 Z" id="Shape"></path>
                </g>
                <g id="Group-14" transform="translate(129.964166, 0.000000)">
                    <rect id="Rectangle" fill="#FFD60A" x="0" y="0" width="24" height="24" rx="12"></rect>
                    <g id="Group-4" transform="translate(6.197077, 8.131385)">
                        <rect id="Rectangle" fill="#FFFFFF" x="6.82121026e-14" y="0" width="7.73723046" height="7.73723046" rx="3.86861523"></rect>
                        <rect id="Rectangle" fill="url(#linearGradient-1)" opacity="0.677303496" x="3.86861523" y="0" width="7.73723046" height="7.73723046" rx="3.86861523"></rect>
                    </g>
                </g>
                <g id="Group-9" transform="translate(140.361243, 8.131385)"></g>
                <g id="􀝋" transform="translate(70.041585, 0.000000)" fill="#007AFF" fill-rule="nonzero">
                    <path d="M16.7786429,24 L33.5439377,24 C34.6028921,24 35.3437152,23.8509455 35.7664071,23.5528365 C36.189099,23.2547275 36.4004449,22.8120133 36.4004449,22.2246941 C36.4004449,21.3704116 36.1401557,20.4671858 35.6195773,19.5150167 C35.0989989,18.5628476 34.3515017,17.6707453 33.3770857,16.8387097 C32.4026696,16.0066741 31.2235818,15.3303671 29.839822,14.8097887 C28.4560623,14.2892102 26.8965517,14.028921 25.1612903,14.028921 C23.4349277,14.028921 21.8798665,14.2892102 20.4961068,14.8097887 C19.1123471,15.3303671 17.9310345,16.0066741 16.9521691,16.8387097 C15.9733037,17.6707453 15.2258065,18.5628476 14.7096774,19.5150167 C14.1935484,20.4671858 13.9354839,21.3704116 13.9354839,22.2246941 C13.9354839,22.8120133 14.1468298,23.2547275 14.5695217,23.5528365 C14.9922136,23.8509455 15.7285873,24 16.7786429,24 Z M25.1746385,11.6395996 C26.1268076,11.6395996 27.0077864,11.3793103 27.8175751,10.8587319 C28.6273637,10.3381535 29.2791991,9.63292547 29.7730812,8.74304783 C30.2669633,7.85317019 30.5139043,6.85205784 30.5139043,5.73971079 C30.5139043,4.64516129 30.2669633,3.66407119 29.7730812,2.79644049 C29.2791991,1.92880979 28.6273637,1.2458287 27.8175751,0.747497219 C27.0077864,0.24916574 26.1268076,0 25.1746385,0 C24.2224694,0 23.3414905,0.253615128 22.5317019,0.760845384 C21.7219132,1.26807564 21.0700779,1.95773081 20.5761958,2.8298109 C20.0823137,3.70189099 19.8353726,4.6807564 19.8353726,5.76640712 C19.8353726,6.86985539 20.0823137,7.86429366 20.5761958,8.74972191 C21.0700779,9.63515017 21.7219132,10.3381535 22.5317019,10.8587319 C23.3414905,11.3793103 24.2224694,11.6395996 25.1746385,11.6395996 Z M2.34927697,24 L12.4805339,24 C12.1334816,23.4927697 11.9688543,22.8832036 11.9866518,22.1713014 C12.0044494,21.4593993 12.1690768,20.7119021 12.4805339,19.9288098 C12.7919911,19.1457175 13.2213571,18.3870968 13.7686318,17.6529477 C14.3159066,16.9187987 14.9499444,16.2714127 15.6707453,15.7107898 C14.9232481,15.2124583 14.0667408,14.8008899 13.1012236,14.4760845 C12.1357063,14.1512792 11.0300334,13.9888765 9.78420467,13.9888765 C8.28031146,13.9888765 6.92547275,14.2358176 5.71968854,14.7296997 C4.51390434,15.2235818 3.48609566,15.8731924 2.63626251,16.6785317 C1.78642937,17.483871 1.13459399,18.3626251 0.680756396,19.3147942 C0.226918799,20.2669633 0,21.2057842 0,22.131257 C0,22.727475 0.180200222,23.1879867 0.540600667,23.512792 C0.901001112,23.8375973 1.50389321,24 2.34927697,24 Z M9.78420467,11.9466073 C10.6206897,11.9466073 11.3904338,11.7196885 12.0934372,11.2658509 C12.7964405,10.8120133 13.3615128,10.1957731 13.7886541,9.41713014 C14.2157953,8.63848721 14.429366,7.76863181 14.429366,6.80756396 C14.429366,5.84649611 14.2157953,4.98998888 13.7886541,4.23804227 C13.3615128,3.48609566 12.7942158,2.89432703 12.0867631,2.46273637 C11.3793103,2.03114572 10.6117909,1.81535039 9.78420467,1.81535039 C8.96551724,1.81535039 8.20244716,2.03559511 7.49499444,2.47608454 C6.78754171,2.91657397 6.21579533,3.51501669 5.77975528,4.27141268 C5.34371524,5.02780868 5.13014461,5.88209121 5.13904338,6.83426029 C5.13904338,7.78642937 5.35261402,8.64961068 5.77975528,9.42380423 C6.20689655,10.1979978 6.77419355,10.8120133 7.48164627,11.2658509 C8.189099,11.7196885 8.95661846,11.9466073 9.78420467,11.9466073 Z M47.9733037,24 C48.8186874,24 49.4215795,23.8375973 49.78198,23.512792 C50.1423804,23.1879867 50.3225806,22.727475 50.3225806,22.131257 C50.3225806,21.2057842 50.0978865,20.2669633 49.6484983,19.3147942 C49.1991101,18.3626251 48.5472747,17.483871 47.6929922,16.6785317 C46.8387097,15.8731924 45.8086763,15.2235818 44.6028921,14.7296997 C43.3971079,14.2358176 42.0422692,13.9888765 40.538376,13.9888765 C39.2925473,13.9888765 38.1868743,14.1512792 37.2213571,14.4760845 C36.2558398,14.8008899 35.3993326,15.2124583 34.6518354,15.7107898 C35.3726363,16.2714127 36.0066741,16.9187987 36.5539488,17.6529477 C37.1012236,18.3870968 37.5305895,19.1457175 37.8420467,19.9288098 C38.1535039,20.7119021 38.3181313,21.4593993 38.3359288,22.1713014 C38.3537264,22.8832036 38.189099,23.4927697 37.8420467,24 L47.9733037,24 Z M40.538376,11.9466073 C41.3659622,11.9466073 42.1334816,11.7196885 42.8409344,11.2658509 C43.5483871,10.8120133 44.1156841,10.1979978 44.5428254,9.42380423 C44.9699666,8.64961068 45.1835373,7.78642937 45.1835373,6.83426029 C45.1835373,5.88209121 44.9677419,5.02780868 44.5361513,4.27141268 C44.1045606,3.51501669 43.5350389,2.91657397 42.8275862,2.47608454 C42.1201335,2.03559511 41.3570634,1.81535039 40.538376,1.81535039 C39.7107898,1.81535039 38.9432703,2.03114572 38.2358176,2.46273637 C37.5283648,2.89432703 36.9610679,3.48609566 36.5339266,4.23804227 C36.1067853,4.98998888 35.8932147,5.84649611 35.8932147,6.80756396 C35.8932147,7.76863181 36.1067853,8.63848721 36.5339266,9.41713014 C36.9610679,10.1957731 37.5261402,10.8120133 38.2291435,11.2658509 C38.9321468,11.7196885 39.701891,11.9466073 40.538376,11.9466073 Z" id="Shape"></path>
                </g>
            </g>
        </g>
    </g>
</svg>