<?xml version="1.0" encoding="UTF-8"?>
<svg width="25px" height="25px" viewBox="0 0 25 25" version="1.1" xmlns="http://www.w3.org/2000/svg" xmlns:xlink="http://www.w3.org/1999/xlink">
    <title>apple</title>
    <g id="Landing" stroke="none" stroke-width="1" fill="none" fill-rule="evenodd" fill-opacity="0.85">
        <g id="Landing_02" transform="translate(-280.000000, -8424.000000)" fill="#FFFFFF">
            <g id="Group-13" transform="translate(132.666375, 8374.732061)">
                <g id="apple" transform="translate(144.000000, 46.000000)">
                    <path d="M4,4 L4,28 L28,28 L28,4 L4,4 Z M23.9385,9.6865 L22.6514,10.92 C22.5404486,11.0046221 22.4853815,11.1436561 22.5083,11.2813 L22.5083,20.3487 C22.4853584,20.4863463 22.5404302,20.6253919 22.6514,20.71 L23.9084,21.9439 L23.9084,22.2149 L17.5854,22.2149 L17.5854,21.9439 L18.8877,20.68 C19.0156,20.552 19.0156,20.5144 19.0156,20.3191 L19.0156,12.99 L15.3956,22.1858 L14.906,22.1858 L10.6907,12.99 L10.6907,19.1531 C10.6557045,19.4121434 10.7417722,19.6728908 10.9241,19.8602 L12.6177,21.9149 L12.6177,22.1858 L7.8154,22.1858 L7.8154,21.9149 L9.509,19.86 C9.69003334,19.6724032 9.7710746,19.4099008 9.7273,19.1529 L9.7273,12.0264 C9.74739796,11.8285273 9.67182661,11.6329483 9.5239,11.5 L8.0186,9.6865 L8.0186,9.4155 L12.6929,9.4155 L16.3059,17.3394 L19.4824,9.4155 L23.9385,9.4155 L23.9385,9.6865 Z" id="Fill"></path>
                    <path d="M9.7273,12.0266 C9.74724151,11.82871 9.67174447,11.6331529 9.524,11.5 L8.0186,9.6863 L8.0186,9.4154 L12.693,9.4154 L16.306,17.3392 L19.4824,9.4154 L23.9385,9.4154 L23.9385,9.6863 L22.6513,10.92 C22.5403657,11.0045855 22.4853291,11.1436011 22.5083,11.2812 L22.5083,20.3488 C22.4853291,20.4863989 22.5403657,20.6254145 22.6513,20.71 L23.9084,21.9441 L23.9084,22.215 L17.5856,22.215 L17.5856,21.9441 L18.8878,20.68 C19.0157,20.5521 19.0157,20.5144 19.0157,20.3188 L19.0157,12.99 L15.3957,22.1855 L14.9064,22.1855 L10.6907,12.99 L10.6907,19.1529 C10.6556239,19.4120413 10.7416965,19.6729141 10.9241,19.8603 L12.6177,21.9146 L12.6177,22.1855 L7.8154,22.1855 L7.8154,21.9146 L9.509,19.86 C9.69012625,19.6723356 9.7711747,19.4096985 9.7273,19.1526 L9.7273,12.0266 Z" id="Inner-Fill" opacity="0"></path>
                </g>
            </g>
        </g>
    </g>
</svg>