<?xml version="1.0" encoding="UTF-8"?>
<svg width="23px" height="19px" viewBox="0 0 23 19" version="1.1" xmlns="http://www.w3.org/2000/svg" xmlns:xlink="http://www.w3.org/1999/xlink">
    <title>apple</title>
    <g id="Landing" stroke="none" stroke-width="1" fill="none" fill-rule="evenodd" fill-opacity="0.85">
        <g id="Landing_02" transform="translate(-209.000000, -8427.000000)" fill="#FFFFFF">
            <g id="Group-13" transform="translate(132.666375, 8374.732061)">
                <g id="apple" transform="translate(72.000000, 46.000000)">
                    <path d="M11.92,24.94 C15.331913,24.9614592 18.6103003,23.6155695 21.0229349,21.2029349 C23.4355695,18.7903003 24.7814592,15.511913 24.76,12.1 C24.76,11.9 24.76,11.71 24.76,11.51 C25.6355927,10.8684887 26.39346,10.0801714 27,9.18 C26.1755175,9.54059545 25.3031099,9.77974965 24.41,9.89 C25.3569106,9.32578035 26.0674002,8.43766828 26.41,7.39 C25.5275212,7.91944088 24.5598158,8.29163529 23.55,8.49 C22.1518418,7.00022482 19.9281541,6.63358583 18.1257388,7.59565425 C16.3233235,8.55772266 15.3903795,10.6092651 15.85,12.6 C12.2218019,12.4219124 8.84048219,10.7094375 6.55,7.89 C5.36496086,9.94678024 5.97706427,12.5700806 7.95,13.89 C7.24861239,13.862949 6.5634527,13.6711043 5.95,13.33 L5.95,13.38 C5.93715708,15.5144464 7.41605299,17.3682737 9.5,17.83 C8.84763801,18.0054602 8.16429216,18.0327941 7.5,17.91 C8.09993949,19.72013 9.77351779,20.9572967 11.68,21 C10.0892111,22.280524 8.11209136,22.9853795 6.07,23 C5.71195318,22.9896373 5.35474716,22.959592 5,22.91 C7.06695516,24.2268981 9.46920442,24.9211898 11.92,24.91" id="Fill"></path>
                </g>
            </g>
        </g>
    </g>
</svg>